PathFileType	4	(X/Y/Z)	Patient4_TMGait_0pt7_01_left_49.trc.trc
DataRate	CameraRate	NumFrames	NumMarkers	Units	OrigDataRate	OrigDataStartFrame	OrigNumFrames
85.365853658537	85.365853658537	4	33	mm	85.365853658537	71	       141
Frame#	Time	Sacral			L.Shoulder			Chest			R.Shoulder			Neck			R.ASIS			L.ASIS			R.Thigh.Superior			R.Thigh.Lateral			R.Thigh.Inferior			R.Patella			L.Thigh.Superior			L.Thigh.Lateral			L.Thigh.Inferior			L.Patella			L.Shank.Superior			L.Shank.Lateral			L.Shank.Inferior			R.Shank.Superior			R.Shank.Lateral			R.Shank.Inferior			R.Heel			R.Midfoot.Superior			R.Midfoot.Lateral			R.Toe			L.Heel			L.Midfoot.Lateral			L.Midfoot.Superior			L.Toe			L.Elbow			L.Wrist			R.Elbow			R.Wrist			
		X1	Y1	Z1	X2	Y2	Z2	X3	Y3	Z3	X4	Y4	Z4	X5	Y5	Z5	X6	Y6	Z6	X7	Y7	Z7	X8	Y8	Z8	X9	Y9	Z9	X10	Y10	Z10	X11	Y11	Z11	X12	Y12	Z12	X13	Y13	Z13	X14	Y14	Z14	X15	Y15	Z15	X16	Y16	Z16	X17	Y17	Z17	X18	Y18	Z18	X19	Y19	Z19	X20	Y20	Z20	X21	Y21	Z21	X22	Y22	Z22	X23	Y23	Z23	X24	Y24	Z24	X25	Y25	Z25	X26	Y26	Z26	X27	Y27	Z27	X28	Y28	Z28	X29	Y29	Z29	X30	Y30	Z30	X31	Y31	Z31	X32	Y32	Z32	X33	Y33	Z33	

71	57.760000000000	872.599626989316	1005.217277185390	452.988819987794	1094.691201328601	1426.523034619885	283.550393846202	1176.471367966867	1348.486355682817	453.116010222965	1080.633057669652	1432.759384998105	615.148990744726	1086.036485181619	1485.008706362368	435.620592684431	1088.539114443420	940.321288606956	590.530380653996	1096.152867591324	949.915733752612	315.038083069784	1163.763511903862	768.967884963256	567.236001428097	1118.730236768686	648.095075079162	641.901789101300	1208.324248769423	609.910746017067	563.538598030174	1243.017042139633	530.577551393328	583.337124623778	1094.757122869888	725.062416045025	346.899610628964	980.390253571494	633.516474179743	275.335823613445	1032.656132843331	538.332977817313	343.524014308974	1015.605130853600	472.811487344342	352.315865494462	982.746576924942	406.807438898353	341.248204338056	882.226613443298	304.937985900085	285.944930030652	912.768057206687	188.358137904880	358.787933244081	1232.020916995736	442.289728564154	594.178111172864	1184.402958600929	325.481815477276	656.835665797383	1261.042871853724	243.941323832793	607.449401573159	1181.947479142546	51.088472959712	576.421023354179	1339.124037980932	134.484520746845	621.545315326418	1266.022092480282	50.701623534454	648.853570836115	1465.860499523456	104.705977325002	646.129641101160	768.884864556289	39.901920304361	394.863620132414	844.169275530039	36.247405065202	316.069118274160	927.991845561345	95.913420352949	345.090518904670	1056.148916867655	40.107086642256	317.907926680533	1147.421562202936	1103.202548889079	134.516255938577	1389.690305092891	1127.793742044795	203.514375362183	926.353792635373	1129.255959020655	739.195565595360	892.760407540488	870.044352062352	758.235035161500	
72	57.771714285714	874.519916272796	1002.638913806954	455.631816754877	1094.282866476764	1424.663799007242	285.458259800192	1176.851569749401	1347.066061774993	454.784344390737	1081.161694863250	1431.164275417722	616.938956835023	1085.970869278373	1483.098237315836	437.424634881459	1090.749753820683	937.752012301763	592.432828705169	1097.812099133191	948.256798362479	316.899082411219	1164.512157669352	765.008075659022	569.267649958249	1117.367591489670	643.930003482796	642.511070025107	1207.315499524348	605.881658160874	564.757776730019	1240.688277603340	526.878073628502	583.631097294019	1094.767809714801	722.961702941081	347.693989509111	979.138742486782	632.360876282457	276.626606538769	1030.878734992853	536.560639304544	344.255133471339	1013.211696423795	470.790626119935	353.042355895561	979.277850956918	405.202825852849	341.966030620516	877.113383878933	304.945357087926	286.506370498090	905.997424535987	187.724747546304	358.937318239168	1230.673138881548	438.370703307104	593.865077603838	1183.151786742468	320.711360086301	654.638285972295	1261.112803439971	240.300047813296	605.377865655151	1183.668777230307	47.975568522150	572.266142416717	1340.096183738226	131.320759915498	618.636484217398	1267.142981776481	47.759719943184	645.250967761976	1466.691245458542	101.912691004867	643.959803603489	760.624926352668	40.180716769873	394.705406640757	835.978891785771	36.319219107059	316.018099473179	919.893235311933	95.891021761924	345.032396453395	1047.947054564536	39.951639011561	317.830279760215	1151.981477504671	1102.672243759600	136.415433507434	1391.788587459256	1137.797421324385	208.071162228662	921.175636941630	1131.214066124346	740.048274814689	883.338449830356	872.353007603055	757.927777914984	
73	57.783428571429	876.574617622914	1000.035712271927	458.539558011709	1093.843074247822	1422.748157507919	287.486348250944	1177.288511632892	1345.651475097807	456.561957625107	1081.799104512324	1429.570283623179	618.893393965641	1085.904479796116	1481.194237875269	439.375161957234	1093.131849664125	935.147027305679	594.482748655188	1099.530879533189	946.592160089683	318.930803132493	1165.851263824779	761.316302550573	571.479350583248	1116.397505301632	639.848334159610	642.807899194879	1207.002659681207	602.183457352569	565.960966254210	1238.884028457105	523.077774855653	583.634819398793	1095.116550023822	720.907786176452	348.587679610776	978.295889201315	631.160790158267	278.123822012260	1029.727531684052	534.739122166435	345.087544491189	1011.517681463258	468.581086819655	353.853528019560	976.329342217557	403.472430443924	342.777234971277	872.328712560568	305.048590055727	287.169180814901	899.406164886703	187.120315721525	359.075564635758	1229.314812888608	434.216027580611	593.188512570774	1181.171307179245	316.101373532700	652.221602283892	1259.622474883757	236.255807536542	602.947001920506	1181.995961249632	45.555943014514	568.236001174966	1338.574713664645	127.277968725450	615.211600120268	1264.984462464490	44.972808844658	641.669323115667	1464.708050976007	96.942452779979	641.130952226217	752.355535266176	40.653907623497	394.489964817601	827.802784604165	36.461318703263	315.936194494863	911.865302828791	95.897502959953	344.927008434041	1039.774216607231	39.791370109777	317.728296607082	1155.911655328765	1101.868143864344	138.612393368666	1393.024757851129	1146.662528933344	212.651356924448	916.984770335620	1132.677618987022	740.876821103034	875.260699999136	874.153801342400	757.514235119619	
74	57.795142857143	878.721323852689	997.500901022264	461.664465910537	1093.438211361924	1420.829503880343	289.627900881892	1177.803765222213	1344.284648969483	458.462729238766	1082.546929055335	1428.030336074385	621.009929712432	1085.887199186120	1479.364145231974	441.467128370545	1095.641720687911	932.600602640994	596.669030135767	1101.283629122629	944.982448354257	321.128765793786	1167.733190094642	757.945386497631	573.835864081258	1115.857006455807	635.994337354085	642.879996232147	1207.323165553046	598.896491695437	567.100939787629	1237.626818163300	519.328454247498	583.329805222118	1095.790705687700	718.961653238839	349.589411868695	977.872346099270	629.952015225083	279.814784572331	1029.232013836496	532.907402324000	346.009139821688	1010.571998999299	466.213796337050	354.704300955297	973.919958147110	401.659173806928	343.656069328031	867.901648027227	305.304346347032	287.921310705647	893.029242574701	186.604326680447	359.177609128093	1228.069807192729	430.023820835954	592.213297753721	1178.822047691644	311.797263409248	649.810512895346	1256.985627902003	232.002458026912	600.312803400302	1177.560782960223	43.757737816045	564.608865243175	1335.105380526541	122.639738420795	611.449933817403	1260.235309168738	42.450261443753	638.355693522487	1460.564697103505	90.324046597587	637.788295180207	744.093908860527	41.427450107147	394.212967084049	819.649094705583	36.718206664624	315.818543480172	903.948324398038	95.946974554900	344.749802809364	1031.635199378407	39.632132731923	317.603839016787	1159.149374660694	1100.774968524528	141.095787250837	1393.478759663714	1154.277849397548	217.220482908221	913.865293390542	1133.578158022428	741.719656060073	868.607941478286	875.378705468920	757.030926310732	
